<svg xmlns="http://www.w3.org/2000/svg" viewBox="0 0 64 64" role="img" aria-labelledby="title"><title id="title">Rachet</title><rect width="64" height="64" rx="14" fill="#281916"/><svg x="4" y="3" width="56" height="56" viewBox="0 0 82 82"><g stroke="#281916" stroke-linecap="round" stroke-linejoin="round">
  <path d="M11 28 Q5 27 4 34 L4 47 Q5 53 11 52 L15 48 L16 32 Z" fill="#ffd43b" stroke-width="2.8"/>
  <path d="M70 27 Q77 26 79 33 L79 46 Q78 53 72 52 L68 48 L67 32 Z" fill="#ffd43b" stroke-width="2.8"/>
  <path d="M17 22 Q22 15 33 14 L53 13 Q64 14 69 21 L73 28 Q76 34 75 45 L74 52 Q72 60 62 61 L22 61 Q12 60 10 52 L9 37 Q9 28 17 22 Z" fill="#fffaf1" stroke-width="2.8"/>
  <path d="M27 16 Q31 13 40 13 L55 13 Q60 14 64 17 L61 21 Q53 22 43 22 L32 21 Z" fill="#ffd43b" stroke-width="2.4"/>
  <path d="M23 28 Q27 24 35 24 L53 23 Q62 24 66 30 Q69 34 68 45 Q67 53 59 55 L29 55 Q20 55 17 48 Q15 40 18 33 Q20 30 23 28 Z" fill="#281916" stroke="none"/>
  <path d="M26 43 Q28 37 32 36 Q37 35 41 43 M47 42 Q49 36 53 36 Q58 36 60 42" fill="none" stroke="#ffd43b" stroke-width="4.7"/>
</g></svg></svg>
